name C:\Users\u0101727\Documents\MyRepositories\upper-imu-dc\Results\main_tracking\Case_22\SHRUG01_orientations_groundFrame.mot
datacolumns 13
datarows 40
range 1.21000000 1.60000000
endheader 
time	radius_imu_[0][0]	radius_imu_[0][1]	radius_imu_[0][2]	radius_imu_[1][0]	radius_imu_[1][1]	radius_imu_[1][2]	radius_imu_[2][0]	radius_imu_[2][1]	radius_imu_[2][2]	radius_imu_x	radius_imu_y	radius_imu_z	
          1.21000000	          0.47238385	         -0.16355598	          0.86608483	         -0.27588595	          0.90581612	          0.32153399	         -0.83710241	         -0.39082810	          0.38277010	         -0.69867070	          1.04731643	          0.33331708	
          1.22000000	          0.47340203	         -0.16718288	          0.86483548	         -0.27645452	          0.90401411	          0.32608493	         -0.83633930	         -0.39345694	          0.38174365	         -0.70692658	          1.04482258	          0.33948009	
          1.23000000	          0.47366558	         -0.17084871	          0.86397433	         -0.27746802	          0.90209593	          0.33050632	         -0.83585431	         -0.39627471	          0.37988673	         -0.71599840	          1.04310986	          0.34617053	
          1.24000000	          0.47282782	         -0.17458864	          0.86368551	         -0.27901271	          0.90007437	          0.33469097	         -0.83581443	         -0.39923044	          0.37686775	         -0.72619364	          1.04253655	          0.35371443	
          1.25000000	          0.47070442	         -0.17842669	          0.86406092	         -0.28111803	          0.89796624	          0.33856947	         -0.83630736	         -0.40226925	          0.37251771	         -0.73769306	          1.04328184	          0.36232811	
          1.26000000	          0.46726415	         -0.18236640	          0.86510503	         -0.28376081	          0.89579363	          0.34210171	         -0.83734343	         -0.40533477	          0.36682381	         -0.75053966	          1.04535972	          0.37210382	
          1.27000000	          0.46261467	         -0.18638669	          0.86674545	         -0.28687049	          0.89358422	          0.34527174	         -0.83886411	         -0.40837146	          0.35991633	         -0.76463422	          1.04863943	          0.38300247	
          1.28000000	          0.45698573	         -0.19044188	          0.86884748	         -0.29033481	          0.89137095	          0.34808552	         -0.84075546	         -0.41132678	          0.35205189	         -0.77973309	          1.05286959	          0.39484922	
          1.29000000	          0.45070856	         -0.19446466	          0.87123205	         -0.29400671	          0.88919116	          0.35056974	         -0.84286526	         -0.41415285	          0.34359215	         -0.79544965	          1.05770669	          0.40733321	
          1.30000000	          0.44418598	         -0.19837200	          0.87369752	         -0.29771452	          0.88708514	          0.35276908	         -0.84502360	         -0.41680751	          0.33497256	         -0.81126914	          1.06275194	          0.42002016	
          1.31000000	          0.43784696	         -0.20207417	          0.87604570	         -0.30127784	          0.88509399	          0.35473974	         -0.84706653	         -0.41925487	          0.32665525	         -0.82659102	          1.06760004	          0.43239076	
          1.32000000	          0.43208507	         -0.20548713	          0.87811021	         -0.30452905	          0.88325658	          0.35653874	         -0.84886074	         -0.42146513	          0.31906518	         -0.84080815	          1.07189801	          0.44391411	
          1.33000000	          0.42718891	         -0.20854757	          0.87978267	         -0.30733705	          0.88160586	          0.35821089	         -0.85032557	         -0.42341353	          0.31251785	         -0.85341754	          1.07540483	          0.45415167	
          1.34000000	          0.42327821	         -0.21122880	          0.88103232	         -0.30962818	          0.88016529	          0.35977695	         -0.85144932	         -0.42507818	          0.30715240	         -0.86414074	          1.07804002	          0.46287182	
          1.35000000	          0.42026058	         -0.21355438	          0.88191585	         -0.31139901	          0.87894595	          0.36122663	         -0.85229789	         -0.42643704	          0.30288571	         -0.87302119	          1.07991100	          0.47014438	
          1.36000000	          0.41782255	         -0.21560518	          0.88257505	         -0.31271757	          0.87794526	          0.36251874	         -0.85301351	         -0.42746523	          0.29940180	         -0.88046499	          1.08131120	          0.47638206	
          1.37000000	          0.41546970	         -0.21751162	          0.88321777	         -0.31371238	          0.87714763	          0.36358846	         -0.85379709	         -0.42813634	          0.29619217	         -0.88719461	          1.08267994	          0.48229538	
          1.38000000	          0.41263375	         -0.21941891	          0.88407507	         -0.31455151	          0.87652695	          0.36435951	         -0.85486299	         -0.42843418	          0.29266605	         -0.89408638	          1.08451118	          0.48872555	
          1.39000000	          0.40884355	         -0.22142328	          0.88533535	         -0.31541529	          0.87605052	          0.36475838	         -0.85636449	         -0.42837742	          0.28832732	         -0.90189889	          1.08721477	          0.49635912	
          1.40000000	          0.40387529	         -0.22351927	          0.88708730	         -0.31646721	          0.87568377	          0.36472790	         -0.85833167	         -0.42803863	          0.28293052	         -0.91103010	          1.09099642	          0.50547766	
          1.41000000	          0.39775713	         -0.22561893	          0.88931736	         -0.31782794	          0.87539448	          0.36423881	         -0.86068268	         -0.42752848	          0.27648640	         -0.92150930	          1.09585020	          0.51597371	
          1.42000000	          0.39065854	         -0.22762324	          0.89194931	         -0.31955677	          0.87515600	          0.36329803	         -0.86328986	         -0.42695392	          0.26914862	         -0.93317827	          1.10163833	          0.52757599	
          1.43000000	          0.38281323	         -0.22946716	          0.89487365	         -0.32164417	          0.87494885	          0.36195240	         -0.86602486	         -0.42639106	          0.26113522	         -0.94581051	          1.10814803	          0.53999533	
          1.44000000	          0.37451066	         -0.23111856	          0.89795655	         -0.32401691	          0.87476107	          0.36028615	         -0.86876626	         -0.42588411	          0.25272103	         -0.95910102	          1.11510398	          0.55291377	
          1.45000000	          0.36609785	         -0.23256035	          0.90104831	         -0.32655522	          0.87458751	          0.35841090	         -0.87139776	         -0.42545549	          0.24424081	         -0.97262558	          1.12218050	          0.56592973	
          1.46000000	          0.35795952	         -0.23377575	          0.90399883	         -0.32911732	          0.87442830	          0.35645048	         -0.87381163	         -0.42511652	          0.23607028	         -0.98583629	          1.12903216	          0.57853649	
          1.47000000	          0.35048818	         -0.23473161	          0.90667475	         -0.33156832	          0.87428744	          0.35451927	         -0.87591123	         -0.42487944	          0.22859785	         -0.99807771	          1.13533314	          0.59011871	
          1.48000000	          0.34403973	         -0.23537852	          0.90897394	         -0.33380038	          0.87417099	          0.35270721	         -0.87761835	         -0.42476114	          0.22218011	         -1.00866121	          1.14081597	          0.60001639	
          1.49000000	          0.33897551	         -0.23561514	          0.91081343	         -0.33574736	          0.87408506	          0.35106839	         -0.87884544	         -0.42480679	          0.21718627	         -1.01678086	          1.14525024	          0.60741640	
          1.50000000	          0.33653145	         -0.23489330	          0.91190554	         -0.33736989	          0.87403230	          0.34964138	         -0.87916332	         -0.42531479	          0.21489343	         -1.01970268	          1.14790351	          0.60937114	
          1.51000000	          0.33364707	         -0.23474419	          0.91300317	         -0.33864897	          0.87400437	          0.34847271	         -0.87977071	         -0.42545449	          0.21211312	         -1.02400896	          1.15058604	          0.61311817	
          1.52000000	          0.32875498	         -0.23588980	          0.91448136	         -0.33961433	          0.87400156	          0.34753902	         -0.88123905	         -0.42482616	          0.20722081	         -1.03313731	          1.15422430	          0.62239089	
          1.53000000	          0.32554523	         -0.23647311	          0.91547844	         -0.34030635	          0.87403348	          0.34678099	         -0.88216319	         -0.42443603	          0.20406413	         -1.03891092	          1.15669538	          0.62821930	
          1.54000000	          0.32873916	         -0.23417957	          0.91492650	         -0.34073908	          0.87411016	          0.34616226	         -0.88081068	         -0.42554830	          0.20756010	         -1.03066842	          1.15532577	          0.61897107	
          1.55000000	          0.33272903	         -0.23177092	          0.91409717	         -0.34090011	          0.87421256	          0.34574487	         -0.87924883	         -0.42665518	          0.21186516	         -1.02103353	          1.15327582	          0.60842401	
          1.56000000	          0.33556074	         -0.23026258	          0.91344301	         -0.34077096	          0.87432543	          0.34558674	         -0.87822215	         -0.42724019	          0.21492249	         -1.01442496	          1.15166550	          0.60140568	
          1.57000000	          0.33797832	         -0.22930936	          0.91279125	         -0.34035138	          0.87444500	          0.34569767	         -0.87745746	         -0.42750808	          0.21749769	         -1.00921417	          1.15006687	          0.59613215	
          1.58000000	          0.34039293	         -0.22868783	          0.91204963	         -0.33966552	          0.87456876	          0.34605899	         -0.87678959	         -0.42758785	          0.22001965	         -1.00447796	          1.14825473	          0.59157203	
          1.59000000	          0.34300450	         -0.22825253	          0.91117984	         -0.33875938	          0.87469216	          0.34663485	         -0.87612214	         -0.42756803	          0.22270066	         -0.99973657	          1.14613868	          0.58716020	
          1.60000000	          0.34584131	         -0.22791557	          0.91019134	         -0.33770289	          0.87480862	          0.34737104	         -0.87541450	         -0.42750951	          0.22557721	         -0.99485425	          1.14374580	          0.58268851	
